<svg width="96" height="96" viewBox="0 0 96 96" fill="none" xmlns="http://www.w3.org/2000/svg">
<g style="mix-blend-mode:darken">
<rect width="96" height="96" fill="white"/>
<circle cx="31" cy="5" r="3" fill="#4896D0"/>
<circle cx="85" cy="82" r="6" fill="#495CA4"/>
<circle cx="48" cy="48" r="34" fill="url(#paint0_linear)"/>
<path d="M73.9993 40.4766L73.8416 88.3379L71.98 89.4198L72.1399 41.5562L73.9993 40.4766Z" fill="#CBEBF2"/>
<path d="M72.1404 41.5565L71.9805 89.42L14 55.9433L14.1599 8.08203L72.1404 41.5565Z" fill="url(#paint1_linear)"/>
<path d="M73.9996 40.4767L72.1401 41.5563L14.1597 8.0819L16.0191 7L73.9996 40.4767Z" fill="#E3ECF2"/>
<path d="M65.8293 48.4858L66.3536 50.0609C65.836 50.0476 65.2584 49.8743 64.6475 49.5211V48.1104C65.0718 48.3569 65.4717 48.4769 65.8293 48.4858Z" fill="#8AD6F2"/>
<path d="M60.9732 41.0898L62.104 42.2739C61.9729 42.5672 61.8996 42.9293 61.8996 43.3536C61.8996 44.1467 62.1551 45.0198 62.5727 45.8196L61.6508 46.2105C61.0465 45.0553 60.6777 43.7957 60.6777 42.6494C60.68 42.0362 60.7844 41.5142 60.9732 41.0898Z" fill="#D1D3F2"/>
<path d="M64.6487 48.113V49.5236C63.4535 48.8327 62.3805 47.5998 61.6519 46.2113L62.5738 45.8203C63.0803 46.7822 63.8223 47.6353 64.6487 48.113Z" fill="#8AD6F2"/>
<path d="M67.1928 47.6064L68.3236 48.7906C67.9482 49.6325 67.2439 50.0857 66.3553 50.0635L65.8311 48.4884C66.4442 48.5018 66.9329 48.1885 67.1928 47.6064Z" fill="#8AD6F2"/>
<path d="M62.1044 42.2742L60.9736 41.0901C61.3491 40.2482 62.0533 39.795 62.942 39.8172L63.4662 41.3923C62.8531 41.3789 62.3643 41.6922 62.1044 42.2742Z" fill="#D1D3F2"/>
<path d="M63.4681 41.3944L62.9438 39.8193C63.4615 39.8327 64.0391 40.0059 64.65 40.3592V41.7699C64.2257 41.5233 63.8258 41.4033 63.4681 41.3944Z" fill="#D1D3F2"/>
<path d="M67.3948 46.5259C67.3948 45.7328 67.1393 44.8597 66.7217 44.0599L67.6437 43.6689C68.2479 44.8242 68.6167 46.0838 68.6167 47.2323C68.6167 47.8433 68.5123 48.3653 68.3235 48.7919L67.1927 47.6078C67.3237 47.3123 67.3948 46.9502 67.3948 46.5259Z" fill="#8AD6F2"/>
<path d="M64.6475 41.7681V40.3574C65.8427 41.0483 66.9157 42.2813 67.6443 43.6697L66.7224 44.0607C66.2181 43.0988 65.4761 42.2457 64.6475 41.7681Z" fill="#D1D3F2"/>
<path d="M20.4785 42.8073L20.8851 44.0292C20.483 44.0181 20.0364 43.8848 19.561 43.6115V42.5186C19.8898 42.7074 20.2008 42.8007 20.4785 42.8073Z" fill="#8AD6F2"/>
<path d="M16.7137 37.0713L17.5912 37.991C17.489 38.2198 17.4335 38.4998 17.4335 38.8286C17.4335 39.4439 17.6312 40.1215 17.9555 40.7413L17.2402 41.0434C16.7714 40.1481 16.4849 39.1707 16.4849 38.282C16.4849 37.8066 16.5671 37.4001 16.7137 37.0713Z" fill="#D1D3F2"/>
<path d="M19.5615 42.5185V43.6114C18.6351 43.0761 17.8021 42.1208 17.2378 41.0433L17.9531 40.7412C18.3441 41.4854 18.9217 42.1475 19.5615 42.5185Z" fill="#8AD6F2"/>
<path d="M21.5377 42.123L22.4152 43.0428C22.1242 43.6959 21.5777 44.0469 20.889 44.0291L20.4824 42.8073C20.9556 42.8184 21.3355 42.5762 21.5377 42.123Z" fill="#8AD6F2"/>
<path d="M17.5894 37.9907L16.7119 37.071C17.0029 36.4179 17.5494 36.0669 18.2381 36.0846L18.6447 37.3065C18.1692 37.2954 17.7916 37.5375 17.5894 37.9907Z" fill="#D1D3F2"/>
<path d="M18.6463 37.3068L18.2397 36.085C18.6418 36.0961 19.0884 36.2294 19.5638 36.5026V37.5956C19.235 37.4068 18.924 37.3135 18.6463 37.3068Z" fill="#D1D3F2"/>
<path d="M21.6945 41.2872C21.6945 40.6718 21.4967 39.9942 21.1724 39.3744L21.8877 39.0723C22.3565 39.9676 22.643 40.945 22.643 41.8359C22.643 42.3091 22.5609 42.7156 22.4142 43.0444L21.5367 42.1247C21.6367 41.8959 21.6945 41.6137 21.6945 41.2872Z" fill="#8AD6F2"/>
<path d="M19.561 37.595V36.502C20.4874 37.0373 21.3205 37.9926 21.8848 39.0701L21.1694 39.3722C20.7807 38.628 20.2031 37.966 19.561 37.595Z" fill="#D1D3F2"/>
<path d="M16.8025 30.1616L15.7095 29.5284V28.2666L16.8025 28.8975V30.1616Z" fill="#8AD6F2"/>
<path d="M16.803 31.8859L15.71 31.255V29.9932L16.803 30.6241V31.8859Z" fill="#8AD6F2"/>
<path d="M16.803 33.6118L15.71 32.9809V31.7168L16.803 32.3499V33.6118Z" fill="#8AD6F2"/>
<path d="M24.248 34.4584L17.3301 30.464V29.2021L24.248 33.1965V34.4584Z" fill="#8AD6F2"/>
<path d="M24.248 36.1842L17.3301 32.1899V30.9258L24.248 34.9201V36.1842Z" fill="#8AD6F2"/>
<path d="M24.248 37.9086L17.3301 33.9142V32.6523L24.248 36.6467V37.9086Z" fill="#8AD6F2"/>
<path d="M52.5464 72.8406L50.8091 75.3132C49.1474 73.2449 48.5787 70.4635 49.5362 69.0973C50.176 68.1887 51.2668 68.0909 52.5464 68.8284V72.8406Z" fill="#B2EAF2"/>
<path d="M52.5468 72.8408L54.2841 77.3195C53.1777 77.4194 51.9159 76.6908 50.8096 75.3134L52.5468 72.8408Z" fill="#D1D3F2"/>
<path d="M52.5469 72.8408L54.2841 70.3682C55.9458 72.4364 56.5146 75.2178 55.5549 76.5841C55.235 77.0395 54.8373 77.2683 54.2841 77.3194L52.5469 72.8408Z" fill="#8AD6F2"/>
<path d="M52.5469 72.8403V68.8281C53.1867 69.1969 53.7309 69.6812 54.2841 70.3677L52.5469 72.8403Z" fill="#8AD6F2"/>
<path d="M55.7646 44.5819L57.0954 45.3506V39.9789L55.7646 39.208V44.5819Z" fill="#D1D3F2"/>
<path d="M53.7651 43.4265L55.0981 44.1974V35.3067L53.7651 34.5381V43.4265Z" fill="#8AD6F2"/>
<path d="M49.7666 41.1209L51.0995 41.8895V34.2052L49.7666 33.4365V41.1209Z" fill="#8AD6F2"/>
<path d="M51.7656 42.2735L53.0986 43.0422V36.6263L51.7656 35.8555V42.2735Z" fill="#21DEFF"/>
<path d="M57.0163 46.6308L49.6963 42.4032V41.7656L57.0163 45.991V46.6308Z" fill="#8AD6F2"/>
<path d="M57.0158 47.8457L49.6958 43.6203V42.9805L57.0158 47.2059V47.8457Z" fill="#8AD6F2"/>
<path d="M57.0158 49.0612L49.6958 44.8358V44.1982L57.0158 48.4237V49.0612Z" fill="#8AD6F2"/>
<path d="M70.2161 76.792L57.6465 69.5342V67.3682L70.2161 74.626V76.792Z" fill="#507BC0"/>
<path d="M25.303 47.8101L14.9639 41.8408V43.1093L25.303 49.0809V47.8101Z" fill="#8AD6F2"/>
<path d="M25.303 50.0601L14.9639 44.0908V45.3593L25.303 51.3287V50.0601Z" fill="#8AD6F2"/>
<path d="M70.2161 80.0667L57.6465 72.8089V70.6406L70.2161 77.8985V80.0667Z" fill="#507BC0"/>
<path d="M70.2161 83.4121L57.6465 76.1543V73.9883L70.2161 81.2461V83.4121Z" fill="#507BC0"/>
<path d="M70.2161 86.9788L57.6465 79.721V77.5527L70.2161 84.8106V86.9788Z" fill="#507BC0"/>
<path d="M48.0613 70.5879L26.2456 57.9939V57.1475L48.0613 69.7392V70.5879Z" fill="#8AD6F2"/>
<path d="M48.0608 72.2002L26.2451 59.6062V58.7598L48.0608 71.3516V72.2002Z" fill="#8AD6F2"/>
<path d="M48.0608 73.8135L26.2451 61.2194V60.373L48.0608 72.9648V73.8135Z" fill="#8AD6F2"/>
<path d="M35.3402 28.7071L28.6533 24.8461V24.1641L35.3402 28.0251V28.7071Z" fill="#8AD6F2"/>
<path d="M28.2877 24.0616C28.2877 23.7461 28.0655 23.3618 27.7923 23.2041C27.519 23.0463 27.2969 23.1752 27.2969 23.4907C27.2969 23.8061 27.519 24.1905 27.7923 24.3482C28.0655 24.5059 28.2877 24.3771 28.2877 24.0616Z" fill="#8AD6F2"/>
<path d="M28.2848 28.2247C28.2848 27.9092 28.0626 27.5249 27.7893 27.3672C27.5161 27.2094 27.2939 27.3383 27.2939 27.6538C27.2939 27.9692 27.5161 28.3535 27.7893 28.5113C28.0648 28.6668 28.2848 28.5401 28.2848 28.2247Z" fill="#8AD6F2"/>
<path d="M30.3174 23.2062L33.9852 25.3255V24.6435L30.3174 22.5264V23.2062Z" fill="#8AD6F2"/>
<path d="M27.354 22.5978L33.9854 26.4277V25.7457L27.354 21.918V22.5978Z" fill="#8AD6F2"/>
<path d="M34.3516 24.9663C34.3516 24.6508 34.5737 24.5242 34.847 24.6797C35.1202 24.8374 35.3424 25.2217 35.3424 25.5372C35.3424 25.8526 35.1202 25.9815 34.847 25.8238C34.5737 25.666 34.3516 25.2817 34.3516 24.9663Z" fill="#8AD6F2"/>
<path d="M30.3174 27.3031L33.9852 29.4203V28.7382L30.3174 26.6211V27.3031Z" fill="#8AD6F2"/>
<path d="M27.354 26.6938L33.9854 30.5215V29.8395L27.354 26.0117V26.6938Z" fill="#8AD6F2"/>
<path d="M32.3211 31.2347L28.6533 29.1176V28.4355L32.3211 30.5527V31.2347Z" fill="#8AD6F2"/>
<path d="M35.2847 34.0479L28.6533 30.2201V29.5381L35.2847 33.3681V34.0479Z" fill="#8AD6F2"/>
<path d="M35.2847 35.1516L28.6533 31.3217V30.6396L35.2847 34.4696V35.1516Z" fill="#8AD6F2"/>
<path d="M34.3516 29.0629C34.3516 28.7474 34.5737 28.6186 34.847 28.7763C35.1202 28.9341 35.3424 29.3184 35.3424 29.6339C35.3424 29.9493 35.1202 30.0759 34.847 29.9204C34.5737 29.7605 34.3516 29.3784 34.3516 29.0629Z" fill="#8AD6F2"/>
<path d="M30.3174 33.6967L33.9852 35.8138V35.134L30.3174 33.0146V33.6967Z" fill="#8AD6F2"/>
<path d="M34.3516 35.4565C34.3516 35.141 34.5737 35.0122 34.847 35.1699C35.1202 35.3276 35.3424 35.712 35.3424 36.0274C35.3424 36.3429 35.1202 36.4695 34.847 36.314C34.5737 36.1541 34.3516 35.7719 34.3516 35.4565Z" fill="#8AD6F2"/>
<path d="M16.2617 25.6555L17.6146 26.4353V20.6548L16.2617 19.875V25.6555Z" fill="#B2EAF2"/>
<path d="M20.3179 27.9972L21.6708 28.7791V19.6597L20.3179 18.8799V27.9972Z" fill="#D1D3F2"/>
<path d="M22.3467 29.1679L23.6996 29.9499V22.1167L22.3467 21.3369V29.1679Z" fill="#8AD6F2"/>
<path d="M18.2905 26.8261L19.6434 27.6081V20.1548L18.2905 19.375V26.8261Z" fill="#8AD6F2"/>
<path d="M17.4014 15.7677L22.9664 18.9823V17.947L17.4014 14.7324V15.7677Z" fill="#507BC0"/>
<path d="M67.1755 63.6523C66.6001 64.2055 65.6827 64.2521 64.6519 63.6567V60.0156L67.1755 63.6523Z" fill="#B2EAF2"/>
<path d="M64.6504 60.0156L67.5673 60.3155C67.7206 60.8309 67.805 61.3463 67.805 61.8373C67.805 62.6548 67.5717 63.2747 67.1763 63.6545L64.6504 60.0156Z" fill="#D1D3F2"/>
<path d="M62.126 56.377L64.6497 60.0159L61.7328 59.7182C61.5795 59.2028 61.4951 58.6874 61.4951 58.1964C61.4973 57.3766 61.7306 56.7568 62.126 56.377Z" fill="#8AD6F2"/>
<path d="M64.6502 60.0154L62.1265 56.3765C62.7018 55.8233 63.6194 55.7767 64.6502 56.3721V60.0154Z" fill="#8AD6F2"/>
<path d="M64.6504 56.3721C65.9656 57.1318 67.0941 58.7158 67.5673 60.3131L64.6504 60.0132V56.3721Z" fill="#D1D3F2"/>
<path d="M64.6494 60.0148V63.6559C63.3342 62.8961 62.2056 61.3121 61.7324 59.7148L64.6494 60.0148Z" fill="#B2EAF2"/>
<path d="M61.1543 63.2969L69.6007 68.171V69.0352L61.1543 64.1611V63.2969Z" fill="#8AD6F2"/>
<path d="M60.4296 62.8772V63.7413L59.6987 63.3193V62.4551L60.4296 62.8772Z" fill="#8AD6F2"/>
<path d="M61.1543 64.9414L69.6007 69.8177V70.6819L61.1543 65.8056V64.9414Z" fill="#8AD6F2"/>
<path d="M60.4291 64.5229V65.3871L59.6982 64.965V64.0986L60.4291 64.5229Z" fill="#8AD6F2"/>
<path d="M61.1543 66.585L69.6007 71.4613V72.3255L61.1543 67.4514V66.585Z" fill="#8AD6F2"/>
<path d="M60.4291 66.1672V67.0314L59.6982 66.6093V65.7451L60.4291 66.1672Z" fill="#8AD6F2"/>
<path d="M61.1543 48.9297L69.6007 53.806V54.6702L61.1543 49.7939V48.9297Z" fill="#8AD6F2"/>
<path d="M60.4296 48.5119V49.3761L59.6987 48.954V48.0898L60.4296 48.5119Z" fill="#8AD6F2"/>
<path d="M61.1543 50.5762L69.6007 55.4503V56.3167L61.1543 51.4403V50.5762Z" fill="#8AD6F2"/>
<path d="M60.4291 50.1565V51.0207L59.6982 50.5986V49.7344L60.4291 50.1565Z" fill="#8AD6F2"/>
<path d="M61.1543 52.2197L69.6007 57.0961V57.9603L61.1543 53.0839V52.2197Z" fill="#8AD6F2"/>
<path d="M60.4291 51.802V52.6661L59.6982 52.244V51.3799L60.4291 51.802Z" fill="#8AD6F2"/>
<path d="M56.1079 54.3195L56.821 54.7327V51.8758L56.1079 51.4648V54.3195Z" fill="#8AD6F2"/>
<path d="M55.0386 53.7034L55.7517 54.1144V52.3905L55.0386 51.9795V53.7034Z" fill="#8AD6F2"/>
<path d="M50.7656 51.2357L51.4787 51.6466V49.9227L50.7656 49.5117V51.2357Z" fill="#8AD6F2"/>
<path d="M52.9014 52.4687L53.6145 52.8819V52.2577L52.9014 51.8467V52.4687Z" fill="#8AD6F2"/>
<path d="M49.6963 50.6186L50.4094 51.0296V49.6034L49.6963 49.1924V50.6186Z" fill="#8AD6F2"/>
<path d="M53.9707 53.0868L54.6838 53.4978V51.2118L53.9707 50.8008V53.0868Z" fill="#8AD6F2"/>
<path d="M51.8335 51.8534L52.5466 52.2644V49.2186L51.8335 48.8076V51.8534Z" fill="#8AD6F2"/>
<path d="M56.1074 58.6125L56.8205 59.0257V57.4461L56.1074 57.0352V58.6125Z" fill="#D1D3F2"/>
<path d="M55.0381 57.9968L55.7512 58.4078V57.9168L55.0381 57.5059V57.9968Z" fill="#D1D3F2"/>
<path d="M50.7651 55.5283L51.4782 55.9392V53.3778L50.7651 52.9668V55.5283Z" fill="#D1D3F2"/>
<path d="M52.9009 56.7608L53.614 57.174V56.0077L52.9009 55.5967V56.7608Z" fill="#D1D3F2"/>
<path d="M49.6958 54.911L50.4089 55.3242V54.3534L49.6958 53.9424V54.911Z" fill="#D1D3F2"/>
<path d="M53.9702 57.3793L54.6833 57.7903V54.7645L53.9702 54.3535V57.3793Z" fill="#D1D3F2"/>
<path d="M51.833 56.1455L52.5461 56.5565V54.617L51.833 54.2061V56.1455Z" fill="#D1D3F2"/>
<path d="M56.1074 62.8275L56.8205 63.2385V62.0721L56.1074 61.6611V62.8275Z" fill="#21DEFF"/>
<path d="M55.0396 62.2098L55.7527 62.6208V59.575L55.0396 59.1641V62.2098Z" fill="#21DEFF"/>
<path d="M50.7651 59.7416L51.4782 60.1526V59.5106L50.7651 59.0996V59.7416Z" fill="#21DEFF"/>
<path d="M52.9023 60.9777L53.6155 61.3887V58.9872L52.9023 58.5762V60.9777Z" fill="#21DEFF"/>
<path d="M49.6963 59.1245L50.4094 59.5377V58.1092L49.6963 57.6982V59.1245Z" fill="#21DEFF"/>
<path d="M53.9702 61.5931L54.6833 62.0041V60.2823L53.9702 59.8691V61.5931Z" fill="#21DEFF"/>
<path d="M51.8345 60.3599L52.5476 60.7709V59.2491L51.8345 58.8359V60.3599Z" fill="#21DEFF"/>
<path d="M48.5782 38.3106L36.5396 31.3594V37.1932L48.5782 44.1422V38.3106Z" fill="#507BC0"/>
<path d="M43.6352 29.7704L36.5396 25.6738V30.6901L43.6352 34.7867V29.7704Z" fill="#507BC0"/>
<path d="M56.4519 64.7072L49.354 60.6084V65.6247L56.4519 69.7235V64.7072Z" fill="#8AD6F2"/>
<path d="M44.3267 30.1689V35.1875L48.5787 37.6423V32.626L44.3267 30.1689Z" fill="#507BC0"/>
<path d="M48.1209 68.4885L48.032 68.4374L26.394 55.9456V33.9766L26.4829 34.0277L48.1209 46.5195V68.4885ZM26.5118 55.8767L48.0032 68.2841V46.5884L26.5118 34.181V55.8767Z" fill="white"/>
<path d="M26.4734 54.317L26.4146 54.4189L48.0235 66.8952L48.0824 66.7933L26.4734 54.317Z" fill="white"/>
<path d="M26.4734 52.7574L26.4146 52.8594L48.0235 65.3357L48.0824 65.2337L26.4734 52.7574Z" fill="white"/>
<path d="M26.4744 51.2008L26.4155 51.3027L48.0244 63.779L48.0833 63.677L26.4744 51.2008Z" fill="white"/>
<path d="M26.4734 49.6373L26.4146 49.7393L48.0235 62.2155L48.0823 62.1136L26.4734 49.6373Z" fill="white"/>
<path d="M26.4734 48.0797L26.4146 48.1816L48.0235 60.6579L48.0823 60.5559L26.4734 48.0797Z" fill="white"/>
<path d="M26.4744 46.5211L26.4155 46.623L48.0244 59.0993L48.0833 58.9973L26.4744 46.5211Z" fill="white"/>
<path d="M26.4734 44.9596L26.4146 45.0615L48.0235 57.5378L48.0824 57.4358L26.4734 44.9596Z" fill="white"/>
<path d="M26.4744 43.4029L26.4155 43.5049L48.0245 55.9812L48.0833 55.8792L26.4744 43.4029Z" fill="white"/>
<path d="M26.4734 41.8414L26.4146 41.9434L48.0235 54.4196L48.0823 54.3177L26.4734 41.8414Z" fill="white"/>
<path d="M26.4734 40.2818L26.4146 40.3838L48.0235 52.8601L48.0823 52.7581L26.4734 40.2818Z" fill="white"/>
<path d="M26.4744 38.7232L26.4155 38.8252L48.0244 51.3015L48.0833 51.1995L26.4744 38.7232Z" fill="white"/>
<path d="M26.4734 37.1627L26.4146 37.2646L48.0235 49.7409L48.0823 49.639L26.4734 37.1627Z" fill="white"/>
<path d="M26.4783 35.606L26.4194 35.708L48.0284 48.1843L48.0872 48.0823L26.4783 35.606Z" fill="white"/>
<path d="M26.4744 34.0426L26.4155 34.1445L48.0245 46.6208L48.0833 46.5188L26.4744 34.0426Z" fill="white"/>
<path d="M46.7672 45.7734H46.6494V67.6069H46.7672V45.7734Z" fill="white"/>
<path d="M45.418 44.9932H45.3003V66.8266H45.418V44.9932Z" fill="white"/>
<path d="M44.0674 44.2139H43.9497V66.0451H44.0674V44.2139Z" fill="white"/>
<path d="M42.7169 43.4336H42.5991V65.2649H42.7169V43.4336Z" fill="white"/>
<path d="M41.3663 42.6543H41.2485V64.4856H41.3663V42.6543Z" fill="white"/>
<path d="M40.0157 41.874H39.8979V63.7075H40.0157V41.874Z" fill="white"/>
<path d="M38.6651 41.0947H38.5474V62.9282H38.6651V41.0947Z" fill="white"/>
<path d="M37.3145 40.3154H37.1968V62.1489H37.3145V40.3154Z" fill="white"/>
<path d="M35.9639 39.5352H35.8462V61.3664H35.9639V39.5352Z" fill="white"/>
<path d="M34.6134 38.7559H34.4956V60.5894H34.6134V38.7559Z" fill="white"/>
<path d="M33.2628 37.9756H33.145V59.8091H33.2628V37.9756Z" fill="white"/>
<path d="M31.9122 37.1963H31.7944V59.0298H31.9122V37.1963Z" fill="white"/>
<path d="M30.5616 36.416H30.4438V58.2495H30.5616V36.416Z" fill="white"/>
<path d="M29.2095 35.6387H29.0918V57.4699H29.2095V35.6387Z" fill="white"/>
<path d="M27.8589 34.8594H27.7412V56.6928H27.8589V34.8594Z" fill="white"/>
<path d="M26.4507 55.884V40.9307L28.8011 42.8412L29.1521 45.6648L31.0382 44.4652L33.7463 45.9514L35.5036 45.3005L37.7273 45.7736L39.4246 47.7553L41.1241 46.8489L43.3434 48.8594L45.7294 46.629L48.0598 47.3332V68.3869L26.4507 55.884Z" fill="#B2EAFF"/>
<path d="M48.06 49.8565V54.9684V68.3866L26.4331 55.9037C26.4331 54.1353 26.4331 52.5913 26.4331 52.5913C26.4331 51.6827 26.4331 51.0606 26.4331 51.0606C26.4331 49.1834 26.4331 47.4795 26.4331 47.4795L27.3684 49.57L29.4233 52.1936L32.4824 52.287L34.6529 50.7785L37.7008 52.538L39.527 50.392L41.4175 53.7243L44.27 53.26L46.0917 51.8404L48.06 49.8565Z" fill="#8AD6F2"/>
<path d="M48.06 54.9679V68.3861L26.4331 55.9032C26.4331 54.1348 26.4331 52.5908 26.4331 52.5908L27.7372 52.9263L28.9546 54.448L30.503 56.6629L35.0727 57.2028L37.2476 54.8946L39.0871 55.3855L42.004 57.3405L44.4389 57.085L46.4515 55.1034L48.06 54.9679Z" fill="#D1D3F2"/>
<g opacity="0.4">
<g opacity="0.4">
<path opacity="0.4" d="M25.5718 60.7108L25.5607 60.7041L14.6973 54.4326V47.1748L14.7084 47.1815L25.574 53.4529L25.5718 60.7108ZM14.7106 54.4238L25.5585 60.6863V53.4596L14.7106 47.197V54.4238Z" fill="#507BC0"/>
</g>
<g opacity="0.4">
<path opacity="0.4" d="M25.5599 54.668L14.6987 48.3988L14.7054 48.3877L25.5666 54.657L25.5599 54.668Z" fill="#507BC0"/>
</g>
<g opacity="0.4">
<path opacity="0.4" d="M25.5599 55.8763L14.6987 49.6048L14.7054 49.5938L25.5666 55.863L25.5599 55.8763Z" fill="#507BC0"/>
</g>
<g opacity="0.4">
<path opacity="0.4" d="M25.5599 57.0834L14.6987 50.8141L14.7054 50.8008L25.5666 57.0723L25.5599 57.0834Z" fill="#507BC0"/>
</g>
<g opacity="0.4">
<path opacity="0.4" d="M25.5599 58.2891L14.6987 52.0199L14.7054 52.0088L25.5666 58.278L25.5599 58.2891Z" fill="#507BC0"/>
</g>
<g opacity="0.4">
<path opacity="0.4" d="M25.5599 59.4974L14.6987 53.226L14.7054 53.2148L25.5666 59.4841L25.5599 59.4974Z" fill="#507BC0"/>
</g>
<g opacity="0.4">
<path opacity="0.4" d="M15.7975 47.8125H15.7842V55.0548H15.7975V47.8125Z" fill="#507BC0"/>
</g>
<g opacity="0.4">
<path opacity="0.4" d="M16.8815 48.4385H16.8682V55.6808H16.8815V48.4385Z" fill="#507BC0"/>
</g>
<g opacity="0.4">
<path opacity="0.4" d="M17.967 49.0674H17.9536V56.3097H17.967V49.0674Z" fill="#507BC0"/>
</g>
<g opacity="0.4">
<path opacity="0.4" d="M19.0539 49.6943H19.0405V56.9366H19.0539V49.6943Z" fill="#507BC0"/>
</g>
<g opacity="0.4">
<path opacity="0.4" d="M20.1393 50.3203H20.126V57.5626H20.1393V50.3203Z" fill="#507BC0"/>
</g>
<g opacity="0.4">
<path opacity="0.4" d="M21.2262 50.9473H21.2129V58.1895H21.2262V50.9473Z" fill="#507BC0"/>
</g>
<g opacity="0.4">
<path opacity="0.4" d="M22.3131 51.5752H22.2998V58.8175H22.3131V51.5752Z" fill="#507BC0"/>
</g>
<g opacity="0.4">
<path opacity="0.4" d="M23.3986 52.2021H23.3853V59.4444H23.3986V52.2021Z" fill="#507BC0"/>
</g>
<g opacity="0.4">
<path opacity="0.4" d="M24.4855 52.8291H24.4722V60.0714H24.4855V52.8291Z" fill="#507BC0"/>
</g>
</g>
<path d="M24.4795 60.0709L25.5658 60.6974V57.3628L24.4795 56.7363V60.0709Z" fill="#507BC0"/>
<path d="M22.8491 59.1315L23.9355 59.758V58.7205L22.8491 58.0918V59.1315Z" fill="#507BC0"/>
<path d="M16.332 55.3678L17.4183 55.9965V50.5825L16.332 49.9561V55.3678Z" fill="#507BC0"/>
<path d="M19.5913 57.2496L20.6777 57.8761V55.4146L19.5913 54.7881V57.2496Z" fill="#507BC0"/>
<path d="M14.7046 54.4282L15.7909 55.0546V53.0064L14.7046 52.3799V54.4282Z" fill="#507BC0"/>
<path d="M21.2202 58.1885L22.3065 58.8173V52.4214L21.2202 51.7949V58.1885Z" fill="#507BC0"/>
<path d="M17.9609 56.3094L19.0473 56.9359V52.8394L17.9609 52.2129V56.3094Z" fill="#507BC0"/>
</g>
<defs>
<linearGradient id="paint0_linear" x1="48" y1="14" x2="48" y2="82" gradientUnits="userSpaceOnUse">
<stop stop-color="#49509B"/>
<stop offset="1" stop-color="#48A0D8"/>
</linearGradient>
<linearGradient id="paint1_linear" x1="43.0702" y1="8.08203" x2="43.0702" y2="89.42" gradientUnits="userSpaceOnUse">
<stop stop-color="#CBEFFD"/>
<stop offset="1" stop-color="#E6F2FE"/>
</linearGradient>
</defs>
</svg>
