<svg width="96" height="96" viewBox="0 0 96 96" fill="none" xmlns="http://www.w3.org/2000/svg">
<g style="mix-blend-mode:darken">
<rect width="96" height="96" fill="white"/>
<circle cx="22" cy="80" r="3" fill="#4896D0"/>
<circle cx="82" cy="20" r="6" fill="#495CA4"/>
<circle cx="48" cy="48" r="34" fill="url(#paint0_linear)"/>
<path d="M23.7442 59.3267C19.527 56.8917 16.1083 50.9952 16.1083 46.1556C16.1083 44.3607 16.5834 42.9717 17.3918 42.0512C15.0773 42.2189 13.5117 44.1562 13.5117 47.4264C13.5117 52.2655 16.9304 58.1625 21.1476 60.5975C23.7975 62.1273 26.1241 61.9166 27.4912 60.3539C26.3848 60.4347 25.1085 60.1142 23.7442 59.3267Z" fill="#7FB7E7"/>
<path d="M21.1683 60.5961C16.9512 58.1611 13.5325 52.2641 13.5325 47.425C13.5325 42.5854 16.9512 40.6365 21.1683 43.0715C25.386 45.5064 28.8047 51.4029 28.8047 56.2425C28.8047 61.0815 25.386 63.0311 21.1683 60.5961ZM31.1868 57.7283C31.1868 57.1229 31.1341 56.5026 31.056 55.8775L34.1425 55.487C33.8285 53.9329 33.3534 52.3618 32.7442 50.814L29.227 49.7505C28.6128 48.4353 27.8754 47.1627 27.0379 45.9744L27.8803 42.4254C26.8383 41.1243 25.7083 39.9266 24.5122 38.8752L22.619 41.3245C22.1131 40.9428 21.5989 40.5854 21.0715 40.2808C20.5436 39.9761 20.0295 39.7402 19.5241 39.5373L17.6308 34.9022C16.4343 34.5723 15.3042 34.4656 14.2622 34.563L15.1052 39.0853C14.2677 39.3063 13.5297 39.727 12.9161 40.3336L9.39893 37.3355C8.78965 38.1796 8.31399 39.2019 8 40.3935L11.0866 44.3478C11.0085 44.8834 10.9557 45.4426 10.9557 46.0481C10.9557 46.6535 11.0085 47.2738 11.0866 47.8989L8 48.29C8.31399 49.8435 8.78965 51.4145 9.39893 52.9631L12.9161 54.0265C13.5297 55.3418 14.2677 56.6136 15.1052 57.8022L14.2622 61.3511C15.3042 62.6526 16.4343 63.8504 17.6308 64.9012L19.5241 62.4524C20.0295 62.8337 20.5436 63.1911 21.0715 63.4957C21.5989 63.8003 22.1131 64.0368 22.619 64.2391L24.5122 68.8741C25.7083 69.2047 26.8383 69.3113 27.8803 69.214L27.0379 64.6911C27.8754 64.4707 28.6128 64.0499 29.227 63.4435L32.7442 66.4409C33.3534 65.5969 33.8285 64.5747 34.1425 63.3836L31.056 59.4287C31.1341 58.8936 31.1868 58.3338 31.1868 57.7283Z" fill="url(#paint1_linear)"/>
<path d="M22.4762 37.8311L20.5829 33.1966L17.625 34.8952L19.5183 39.5303L22.4762 37.8311Z" fill="#D0DAEC"/>
<path d="M19.5176 39.5375C20.0229 39.7405 20.5371 39.9764 21.065 40.281C21.5923 40.5856 22.1065 40.9431 22.6124 41.3247L24.5051 38.876L24.5046 38.8766C24.5046 38.8766 24.1845 38.6753 24.0229 38.5824C23.4955 38.2777 22.9814 38.0413 22.4755 37.8384L19.5176 39.5375Z" fill="#D6EEFB"/>
<path d="M20.5785 33.1993C19.3825 32.8688 18.2524 32.7622 17.2098 32.8595L14.252 34.5587C15.294 34.4613 16.424 34.568 17.6206 34.8979L20.5785 33.1993Z" fill="#D6EEFB"/>
<path d="M30.8412 40.7227C29.7986 39.4216 28.6686 38.224 27.4725 37.1731L24.5146 38.8723C25.7107 39.9232 26.8407 41.1208 27.8828 42.4219L30.8412 40.7227Z" fill="#D6EEFB"/>
<path d="M27.8522 42.4241L27.0098 45.9731L29.9677 44.2745L30.8106 40.7249L27.8522 42.4241Z" fill="#D0DAEC"/>
<path d="M27.0098 45.9714C27.8473 47.1598 28.5852 48.4323 29.1989 49.7476L32.1568 48.0484C31.5431 46.733 30.8051 45.4606 29.9677 44.2728L27.0098 45.9714Z" fill="#D0DAEC"/>
<path d="M29.2246 49.7466L32.7417 50.8101L35.6996 49.1109L32.1825 48.0474L29.2246 49.7466Z" fill="#D6EEFB"/>
<path d="M32.752 50.8138C33.3612 52.3617 33.8363 53.9327 34.1503 55.4868L37.1088 53.7878C36.7948 52.2336 36.3191 50.6626 35.7098 49.1147L32.752 50.8138Z" fill="#7FB7E7"/>
<path d="M15.1047 39.0833L14.8594 37.7679L12.3563 35.6349L9.39844 37.3335L12.9156 40.3315C13.5292 39.725 14.2672 39.3043 15.1047 39.0833Z" fill="#D0DAEC"/>
<path d="M34.1503 63.3793C33.8363 64.5703 33.3612 65.5926 32.752 66.4365L35.7098 64.7375C36.3191 63.8933 36.7948 62.871 37.1088 61.6799L34.1503 63.3793Z" fill="#D0DAEC"/>
<path d="M33.9926 57.7262C34.0702 57.1911 34.1229 56.6313 34.1229 56.0258C34.1229 55.8477 34.1114 55.6667 34.1015 55.4858L31.0342 55.8742C31.1123 56.4992 31.165 57.1196 31.165 57.7249C31.165 58.3305 31.1123 58.8902 31.0342 59.4253L33.9926 57.7262Z" fill="#D0DAEC"/>
<path d="M31.0342 59.4288L34.1207 63.3838L37.0792 61.6844L33.9926 57.7297L31.0342 59.4288Z" fill="#D6EEFB"/>
<path d="M29.1989 63.44C28.5852 64.0464 27.8473 64.4672 27.0098 64.6876L27.8522 69.2104L30.8106 67.5113L30.2129 64.3043L29.1989 63.44Z" fill="#D0DAEC"/>
<path d="M10.9755 46.5421L8 48.2886L11.0866 47.8974C11.0294 47.4411 10.9947 46.9891 10.9755 46.5421Z" fill="#D6EEFB"/>
<path d="M19.5183 62.4492L17.625 64.8979L20.6049 63.2021C20.2381 62.9673 19.8746 62.7182 19.5183 62.4492Z" fill="#7FB7E7"/>
<path d="M14.335 39.4272C14.4691 39.3607 14.6039 39.2958 14.7452 39.2419L14.7534 39.2876C14.6094 39.3255 14.473 39.3772 14.335 39.4272Z" fill="white"/>
<path d="M8.19035 48.4189C8.1799 48.3696 8.1667 48.3195 8.15625 48.2694L10.7193 47.9455C10.7248 47.9962 10.7281 48.0463 10.7342 48.0974L8.19035 48.4189Z" fill="white"/>
<path d="M34.0955 55.4956C34.095 55.4918 34.095 55.4879 34.0944 55.484L34.1137 55.4819L34.2495 55.4037C34.2539 55.4252 34.2583 55.4466 34.2627 55.4674L34.0955 55.4956ZM29.1982 49.7454C28.5839 48.4301 27.8465 47.1575 27.009 45.9692C27.8465 47.1575 28.5845 48.4301 29.1982 49.7454ZM27.8515 42.4202C26.8501 41.1697 25.7674 40.015 24.623 38.9938C25.7674 40.015 26.8501 41.1697 27.8515 42.4202Z" fill="white"/>
<path d="M33.9296 55.5132C33.664 54.2446 33.2933 52.965 32.8298 51.6968C32.954 51.8304 33.0794 51.9629 33.2048 52.0944C33.5919 53.2245 33.9048 54.3605 34.1325 55.4878L34.1132 55.49L33.9296 55.5132ZM32.0671 50.8567L29.0514 49.9444C28.4372 48.629 27.6993 47.3565 26.8618 46.1682L27.7048 42.6192C26.721 41.3913 25.6569 40.2596 24.5352 39.2522L24.6165 38.9778C24.6248 38.9849 24.6336 38.9926 24.6418 38.9998C25.7862 40.0209 26.8689 41.1757 27.8703 42.4262L27.0278 45.9752C27.8653 47.1635 28.6027 48.4361 29.217 49.7513L31.7778 50.5257C31.8741 50.6367 31.9703 50.7467 32.0671 50.8567Z" fill="white"/>
<path d="M27.8719 42.4219C26.8705 41.1714 25.7878 40.0166 24.6435 38.9955C24.6352 38.9883 24.6264 38.9806 24.6182 38.9735L24.6523 38.858C25.8334 39.8957 26.9503 41.0768 27.9813 42.3592L27.8719 42.4219Z" fill="white"/>
<path d="M27.0098 45.9731L27.8522 42.4241L27.9616 42.3614C27.9748 42.3774 27.988 42.3939 28.0012 42.4104L27.178 45.8764L27.0098 45.9731Z" fill="white"/>
<path d="M29.1989 49.7476C28.5852 48.4323 27.8473 47.1598 27.0098 45.9714L27.178 45.8746L27.1582 45.9577C27.9842 47.129 28.7128 48.3823 29.321 49.6771L29.1989 49.7476Z" fill="white"/>
<path d="M31.7855 50.52L29.2246 49.7457L29.3467 49.6752C29.3555 49.6939 29.3643 49.7132 29.3731 49.7319L31.7167 50.4401C31.7398 50.4672 31.7624 50.4936 31.7855 50.52Z" fill="white"/>
<path d="M34.1254 55.4868C33.8977 54.3595 33.5849 53.2234 33.1978 52.0934C33.2764 52.1758 33.355 52.2573 33.4342 52.3387C33.774 53.3616 34.0523 54.3887 34.2612 55.4086L34.1254 55.4868Z" fill="white"/>
<path d="M33.9179 55.5288C33.9163 55.5228 33.9152 55.5168 33.9141 55.5108L34.0977 55.4876C34.0983 55.4914 34.0983 55.4953 34.0988 55.4992L33.9179 55.5288Z" fill="white"/>
<path d="M24.5751 61.6436C23.5484 61.6436 22.3898 61.3091 21.1624 60.6031C22.3848 61.3066 23.5385 61.639 24.5602 61.639C25.17 61.639 25.7326 61.5209 26.2352 61.2922C26.2566 61.2866 26.2781 61.2812 26.299 61.2752C25.7843 61.5177 25.2047 61.6436 24.5751 61.6436ZM13.5117 47.404C13.5117 47.4018 13.5117 47.3996 13.5117 47.3974C13.5117 47.3996 13.5117 47.4018 13.5117 47.404ZM13.5117 47.3848C13.5117 47.382 13.5117 47.3787 13.5117 47.376C13.5117 47.3787 13.5117 47.3815 13.5117 47.3848ZM13.5117 47.3655C13.5117 47.3617 13.5117 47.3584 13.5123 47.3545C13.5117 47.3584 13.5117 47.3617 13.5117 47.3655ZM13.5123 47.3457C13.5123 47.3424 13.5123 47.3391 13.5123 47.3353C13.5123 47.3391 13.5123 47.3424 13.5123 47.3457ZM13.5123 47.3265C13.5123 47.3226 13.5123 47.3188 13.5123 47.3149C13.5123 47.3188 13.5123 47.3226 13.5123 47.3265ZM13.5123 47.3072C13.5123 47.3034 13.5123 47.299 13.5128 47.2946C13.5123 47.299 13.5123 47.3034 13.5123 47.3072ZM13.5128 47.2885C13.5128 47.2836 13.5128 47.2787 13.5128 47.2737C13.5128 47.2787 13.5128 47.2836 13.5128 47.2885ZM13.5128 47.2704C13.5128 47.2649 13.5128 47.2594 13.5134 47.2539C13.5128 47.2594 13.5128 47.2649 13.5128 47.2704ZM13.5134 47.2517C13.5134 47.2457 13.5134 47.2396 13.5134 47.2341C13.5134 47.2396 13.5134 47.2457 13.5134 47.2517ZM13.5134 47.2336C13.537 45.9727 13.7982 44.9158 14.248 44.0904C14.2007 44.1789 14.1562 44.2696 14.1133 44.3631C13.7465 45.1429 13.5348 46.1057 13.5134 47.2336Z" fill="white"/>
<path d="M24.5602 61.6416C23.5385 61.6416 22.3848 61.3091 21.1624 60.6057C21.1575 60.6031 21.1525 60.6003 21.1476 60.5975C17.0129 58.2097 13.6453 52.4947 13.5156 47.7112C13.5128 47.6154 13.5117 47.5209 13.5117 47.4264C13.5117 47.4198 13.5117 47.4132 13.5117 47.4066C13.5117 47.4044 13.5117 47.4022 13.5117 47.4C13.5117 47.3956 13.5117 47.3912 13.5117 47.3873C13.5117 47.384 13.5117 47.3813 13.5117 47.3785C13.5117 47.3747 13.5117 47.3714 13.5117 47.3681C13.5117 47.3642 13.5117 47.3609 13.5123 47.3571C13.5123 47.3543 13.5123 47.3516 13.5123 47.3483C13.5123 47.345 13.5123 47.3417 13.5123 47.3378C13.5123 47.3351 13.5123 47.3318 13.5123 47.329C13.5123 47.3252 13.5123 47.3213 13.5123 47.3175C13.5123 47.3153 13.5123 47.3126 13.5123 47.3098C13.5123 47.306 13.5123 47.3016 13.5128 47.2972C13.5128 47.2955 13.5128 47.2933 13.5128 47.2911C13.5128 47.2862 13.5128 47.2812 13.5128 47.2763C13.5128 47.2752 13.5128 47.2741 13.5128 47.273C13.5128 47.2675 13.5128 47.262 13.5134 47.2565C13.5134 47.2559 13.5134 47.2554 13.5134 47.2543C13.5134 47.2482 13.5134 47.2422 13.5134 47.2367V47.2361C13.5348 46.1083 13.7465 45.1454 14.1133 44.3657C13.7427 45.1784 13.5376 46.1858 13.5376 47.3681C13.5376 52.2071 16.9563 58.1042 21.1739 60.5393C22.4035 61.2492 23.5644 61.5845 24.5927 61.5845C25.0986 61.5845 25.572 61.5031 26.0059 61.3459C26.0823 61.3289 26.1598 61.3134 26.2352 61.2947C25.7326 61.5235 25.17 61.6416 24.5602 61.6416Z" fill="white"/>
<path d="M24.323 61.7856C23.2936 61.7856 22.1311 61.4497 20.9005 60.7387C16.6833 58.3037 13.2646 52.4074 13.2646 47.5677C13.2646 45.2499 14.0526 43.6035 15.3344 42.7781C14.9094 43.1152 14.5481 43.5534 14.2649 44.0857C13.8151 44.9111 13.5539 45.968 13.5302 47.2289V47.2295C13.5302 47.235 13.5302 47.241 13.5302 47.2471C13.5302 47.2482 13.5302 47.2487 13.5302 47.2493C13.5297 47.2548 13.5297 47.2603 13.5297 47.2658C13.5297 47.2669 13.5297 47.268 13.5297 47.2691C13.5297 47.274 13.5297 47.279 13.5297 47.2839C13.5297 47.2861 13.5297 47.2883 13.5297 47.29C13.5291 47.2944 13.5292 47.2988 13.5292 47.3026C13.5292 47.3054 13.5292 47.3081 13.5292 47.3103C13.5292 47.3142 13.5292 47.318 13.5292 47.3219C13.5292 47.3246 13.5292 47.3279 13.5292 47.3307C13.5292 47.3345 13.5292 47.3378 13.5292 47.3411C13.5292 47.3444 13.5292 47.3472 13.5292 47.3499C13.5286 47.3538 13.5286 47.3571 13.5286 47.3609C13.5286 47.3642 13.5286 47.3675 13.5286 47.3714C13.5286 47.3741 13.5286 47.3774 13.5286 47.3802C13.5286 47.384 13.5286 47.3884 13.5286 47.3928C13.5286 47.395 13.5286 47.3972 13.5286 47.3994C13.5286 47.406 13.5286 47.4126 13.5286 47.4192C13.5286 47.5137 13.5297 47.6083 13.5324 47.704C13.6622 52.4875 17.0298 58.2025 21.1644 60.5903C21.1694 60.5931 21.1743 60.5959 21.1793 60.5985C22.4066 61.3045 23.5653 61.6389 24.5919 61.6389C25.2215 61.6389 25.8011 61.5131 26.3158 61.2706C26.3235 61.2682 26.3312 61.266 26.3389 61.2632C25.7544 61.6065 25.0742 61.7856 24.323 61.7856Z" fill="white"/>
<path d="M27.9082 64.3584C28.2678 64.1842 28.6027 63.9664 28.9112 63.7063C28.6027 63.9664 28.2678 64.1842 27.9082 64.3584Z" fill="white"/>
<path d="M27.9082 64.3584C28.2436 64.1616 28.5571 63.9262 28.8403 63.6457L28.9112 63.7063C28.6027 63.9664 28.2678 64.1842 27.9082 64.3584Z" fill="white"/>
<path d="M27.5791 64.5371C27.6913 64.4821 27.8013 64.4228 27.9085 64.3594C28.2681 64.1852 28.603 63.9674 28.9115 63.7073L28.9709 63.7578C28.553 64.095 28.0867 64.3545 27.5791 64.5371Z" fill="white"/>
<path d="M12.7687 40.4087C12.7253 40.4087 12.717 40.3933 12.7308 40.3686L12.7775 40.4087C12.7748 40.4087 12.7715 40.4087 12.7687 40.4087ZM12.7308 40.3686L9.49737 37.613C9.37365 37.5993 9.3984 37.5085 9.46053 37.4068L12.8237 40.2729C12.7803 40.3103 12.7445 40.3444 12.7308 40.3686Z" fill="white"/>
<path d="M12.8436 40.2705L9.48047 37.4045C9.49807 37.3748 9.5195 37.3445 9.5404 37.3148L12.9278 40.2018C12.8986 40.2249 12.8695 40.2485 12.8436 40.2705Z" fill="white"/>
<path d="M27.7563 69.2241C27.7205 69.2224 27.7254 69.2213 27.7557 69.2192L27.7563 69.2241ZM27.7557 69.2192L26.9495 64.8965C26.8802 64.8627 26.9457 64.8228 27.0496 64.7792L27.8756 69.2119C27.8244 69.2153 27.781 69.2175 27.7557 69.2192Z" fill="white"/>
<path d="M27.8896 69.209L28.0211 69.1336L28.0332 69.1985C27.9837 69.203 27.9336 69.2062 27.8896 69.209Z" fill="white"/>
<path d="M27.8704 69.209L27.0444 64.7763C27.0873 64.7583 27.1368 64.74 27.1857 64.7209L28.0079 69.1332L27.8764 69.2085C27.8742 69.2085 27.8726 69.209 27.8704 69.209Z" fill="white"/>
<path d="M32.878 66.4277L32.8726 66.359L32.9633 66.3068C32.9352 66.3474 32.9066 66.3876 32.878 66.4277Z" fill="white"/>
<path d="M32.8633 66.2485L32.8578 66.1819C33.3351 65.4237 33.72 64.5478 33.9845 63.5442L30.8979 59.5899C30.976 59.0544 31.0288 58.495 31.0288 57.8897C31.0288 57.2842 30.976 56.6638 30.8979 56.0387L31.0591 56.0265C31.1273 56.6013 31.1718 57.1714 31.1718 57.7284C31.1718 58.334 31.119 58.8937 31.0409 59.4288L34.1275 63.3837C33.8371 64.4857 33.4082 65.443 32.8633 66.2485Z" fill="white"/>
<path d="M32.8609 66.3545L32.8521 66.2445C33.397 65.439 33.8259 64.4817 34.1162 63.3797L34.2268 63.3163L34.2653 63.3653C33.9661 64.5007 33.5202 65.4824 32.9516 66.3023L32.8609 66.3545Z" fill="white"/>
<path d="M31.0342 59.4253C31.1123 58.8902 31.165 58.3305 31.165 57.7249C31.165 57.1679 31.1205 56.5978 31.0523 56.023L31.1986 56.012C31.2662 56.5856 31.3135 57.1552 31.3135 57.7114C31.3135 58.287 31.2662 58.8221 31.1942 59.3336L31.0342 59.4253Z" fill="white"/>
<path d="M34.1207 63.3838L31.0342 59.4288L31.1942 59.3371C31.1909 59.3633 31.187 59.3893 31.1832 59.4151L34.2313 63.3204L34.1207 63.3838Z" fill="white"/>
<path d="M22.5081 41.2554C22.0314 40.8996 21.5475 40.5664 21.0515 40.2799C21.5475 40.5664 22.0314 40.8996 22.5081 41.2554ZM17.6108 34.9013C17.5811 34.8931 17.5508 34.8854 17.5211 34.8771C17.5508 34.8854 17.5811 34.8931 17.6108 34.9013ZM17.4695 34.8634C16.6061 34.6368 15.7785 34.5274 14.9938 34.5274C15.7785 34.5274 16.6061 34.6368 17.4695 34.8634ZM14.9922 34.5274C14.9927 34.5274 14.9933 34.5274 14.9938 34.5274C14.9933 34.5274 14.9927 34.5274 14.9922 34.5274Z" fill="white"/>
<path d="M22.4955 41.4478C21.9896 41.0667 21.476 40.7092 20.9481 40.4046C20.4207 40.1 19.9066 39.864 19.4007 39.6611L17.5074 35.0261C16.6776 34.7968 15.7203 34.7379 14.9092 34.7379C14.7508 34.7379 14.5979 34.7401 14.4533 34.744L14.417 34.551C14.6144 34.5361 14.8146 34.529 15.018 34.529C15.0186 34.529 15.0191 34.529 15.0197 34.529C15.8044 34.529 16.632 34.6384 17.4953 34.865C17.5129 34.8699 17.5299 34.8743 17.547 34.8787C17.5767 34.887 17.6069 34.8947 17.6366 34.9029L19.5299 39.538C20.0353 39.7409 20.5494 39.9768 21.0773 40.2814C21.5733 40.5679 22.0572 40.9012 22.534 41.2569L22.4955 41.4478Z" fill="white"/>
<path d="M19.5183 39.5303L17.625 34.8952L17.6888 34.8584C17.7174 34.8661 17.7454 34.8738 17.7735 34.8815L19.6431 39.4588L19.5183 39.5303Z" fill="white"/>
<path d="M22.5216 41.2554C22.0449 40.8996 21.561 40.5664 21.065 40.2799C20.5371 39.9752 20.0229 39.7393 19.5176 39.5364L19.6424 39.4649L19.6661 39.5227C20.172 39.7256 20.6861 39.9615 21.2134 40.2661C21.666 40.5273 22.107 40.832 22.5426 41.1525L22.5216 41.2554Z" fill="white"/>
<path d="M17.6366 34.8979C17.6069 34.8897 17.5767 34.882 17.547 34.8738C17.5299 34.8694 17.5129 34.865 17.4953 34.86C16.632 34.6334 15.8044 34.524 15.0197 34.524C15.0191 34.524 15.0186 34.524 15.018 34.524C14.8146 34.524 14.6144 34.5312 14.417 34.546V34.5444C14.6628 34.5218 14.913 34.5103 15.1682 34.5103C15.9699 34.5103 16.8173 34.6246 17.7004 34.8611L17.6366 34.8979Z" fill="white"/>
<path d="M17.7559 64.8867C17.7399 64.8725 17.724 64.8582 17.708 64.8433L17.8538 64.7602L17.7559 64.8867Z" fill="white"/>
<path d="M17.6743 64.8105C17.6353 64.7738 17.5962 64.7369 17.5566 64.7012L19.1398 62.6533C19.1827 62.6858 19.2261 62.7167 19.2696 62.7467L17.6743 64.8105Z" fill="white"/>
<path d="M17.741 64.8413C17.73 64.8314 17.719 64.8209 17.708 64.811L19.3032 62.7472C19.3329 62.7683 19.3626 62.7898 19.3923 62.811L17.8867 64.7582L17.741 64.8413Z" fill="white"/>
<path d="M44.9429 46.1026C38.5993 42.4398 33.4561 33.57 33.4561 26.2899C33.4561 23.5899 34.1715 21.5009 35.3873 20.1157C31.906 20.3681 29.5508 23.2825 29.5508 28.2013C29.5508 35.4808 34.6934 44.3512 41.0375 48.0134C45.0226 50.3148 48.5221 49.9986 50.5793 47.6472C48.9142 47.7694 46.9945 47.2871 44.9429 46.1026Z" fill="#7FB7E7"/>
<path d="M41.0384 48.0127C34.6942 44.3498 29.5516 35.4795 29.5516 28.2C29.5516 20.9204 34.6942 17.9884 41.0384 21.6513C47.382 25.3136 52.5246 34.1839 52.5246 41.4634C52.5246 48.7428 47.382 51.6749 41.0384 48.0127ZM56.1077 43.6993C56.1077 42.7881 56.0285 41.855 55.9114 40.9146L60.5542 40.3268C60.0823 37.9897 59.3669 35.6263 58.4502 33.298L53.1597 31.6978C52.2364 29.7193 51.1268 27.8057 49.8669 26.0185L51.1344 20.6796C49.5667 18.7225 47.867 16.9205 46.0677 15.3396L43.2193 19.0233C42.4587 18.4492 41.6856 17.912 40.8921 17.4539C40.0981 16.9953 39.3249 16.6406 38.5644 16.3354L35.7165 9.3633C33.9167 8.86675 32.217 8.70563 30.6492 8.8519L31.9167 15.6552C30.6569 15.9873 29.5478 16.6203 28.6245 17.5325L23.3339 13.0234C22.4167 14.2931 21.7013 15.8306 21.2295 17.6227L25.8723 23.5715C25.7551 24.3765 25.676 25.2184 25.676 26.1291C25.676 27.0397 25.7551 27.9729 25.8723 28.9132L21.2295 29.501C21.7013 31.8381 22.4167 34.2015 23.3339 36.5303L28.6239 38.13C29.5478 40.109 30.6569 42.0227 31.9167 43.8093L30.6492 49.1488C32.217 51.1059 33.9167 52.9078 35.7165 54.4888L38.5644 50.8049C39.3249 51.3787 40.0981 51.9159 40.8921 52.3745C41.6851 52.8324 42.4587 53.1877 43.2193 53.493L46.0677 60.4644C47.867 60.9617 49.5667 61.1228 51.1344 60.9754L49.8669 54.1726C51.1268 53.8405 52.2364 53.2081 53.1597 52.2959L58.4502 56.8044C59.3669 55.5347 60.0823 53.9971 60.5542 52.205L55.9114 46.2563C56.0285 45.4513 56.1077 44.6094 56.1077 43.6993Z" fill="url(#paint2_linear)"/>
<path d="M43.0149 13.7791L40.1675 6.80694L35.7178 9.36285L38.5657 16.335L43.0149 13.7791Z" fill="#D1DAEC"/>
<path d="M38.5405 16.3375C39.301 16.6421 40.0742 16.9974 40.8682 17.456C41.6617 17.9141 42.4349 18.4513 43.1954 19.0254L46.0433 15.3422L46.0422 15.3427C46.0422 15.3427 45.561 15.0403 45.3174 14.9001C44.5239 14.442 43.7508 14.0868 42.9897 13.7816L38.5405 16.3375Z" fill="#E3ECFD"/>
<path d="M40.1401 6.81079C38.3403 6.31423 36.6405 6.15311 35.0728 6.29993L30.623 8.85584C32.1908 8.70902 33.8905 8.87014 35.6903 9.3667L40.1401 6.81079Z" fill="#E3ECF2"/>
<path d="M55.5809 18.1238C54.0126 16.1667 52.3129 14.3647 50.5137 12.7838L46.0645 15.3397C47.8637 16.9206 49.5634 18.7226 51.1312 20.6797L55.5809 18.1238Z" fill="#E3ECF2"/>
<path d="M51.1298 20.6825L49.8623 26.0215L54.3115 23.4656L55.5795 18.1266L51.1298 20.6825Z" fill="#D0DAEC"/>
<path d="M49.8623 26.0208C51.1221 27.808 52.2318 29.7216 53.1551 31.7007L57.6048 29.1448C56.6815 27.1657 55.5713 25.2521 54.3115 23.4649L49.8623 26.0208Z" fill="#E3ECF2"/>
<path d="M53.1558 31.7006L58.4463 33.3003L62.896 30.7444L57.6055 29.1447L53.1558 31.7006Z" fill="#E3ECFD"/>
<path d="M58.4292 33.2974C59.3459 35.6257 60.0613 37.9891 60.5331 40.3262L64.9829 37.7703C64.5105 35.4332 63.7951 33.0698 62.8789 30.7415L58.4292 33.2974Z" fill="#D0DAEC"/>
<path d="M31.8845 15.6539L31.5161 13.6754L27.751 10.4662L23.3018 13.0221L28.5923 17.5312C29.5156 16.619 30.6247 15.986 31.8845 15.6539Z" fill="#D1DAEC"/>
<path d="M60.5331 52.2043C60.0613 53.9964 59.3459 55.534 58.4292 56.8037L62.8789 54.2477C63.7951 52.978 64.5105 51.4405 64.9829 49.6484L60.5331 52.2043Z" fill="#D0DAEC"/>
<path d="M60.3291 43.7049C60.4463 42.8993 60.5254 42.0574 60.5254 41.1473C60.5254 40.879 60.5079 40.6062 60.4936 40.3346L55.8794 40.9186C55.9965 41.8589 56.0757 42.7921 56.0757 43.7032C56.0757 44.6133 55.9965 45.4552 55.8794 46.2603L60.3291 43.7049Z" fill="#D0DAEC"/>
<path d="M55.8794 46.2534L60.5222 52.2021L64.9719 49.6462L60.3291 43.6981L55.8794 46.2534Z" fill="#E3ECFD"/>
<path d="M53.1551 52.2975C52.2318 53.2098 51.1221 53.8422 49.8623 54.1742L51.1298 60.9771L55.5795 58.4215L54.6805 53.5973L53.1551 52.2975Z" fill="#7FB7E7"/>
<path d="M25.7051 26.8722L21.2295 29.499L25.8723 28.9112C25.7865 28.2244 25.7342 27.5452 25.7051 26.8722Z" fill="#D6EEFB"/>
<path d="M38.5657 50.8085L35.7178 54.4917L40.2 51.941C39.6484 51.5872 39.1024 51.2134 38.5657 50.8085Z" fill="#7FB7E7"/>
<path d="M30.7153 16.1709C30.9171 16.0714 31.1201 15.974 31.3323 15.8927L31.345 15.9614C31.1283 16.0186 30.9226 16.0967 30.7153 16.1709Z" fill="white"/>
<path d="M21.4764 29.7017C21.4605 29.6269 21.4401 29.5521 21.4253 29.4773L25.28 28.9895C25.2888 29.066 25.2932 29.1413 25.3026 29.2178L21.4764 29.7017Z" fill="white"/>
<path d="M60.5265 40.3511C60.5265 40.3456 60.526 40.3395 60.526 40.334L60.5545 40.3302L60.7591 40.2131C60.7657 40.2455 60.7723 40.2774 60.7783 40.3093L60.5265 40.3511ZM52.4331 30.2308C51.6963 28.8192 50.8654 27.4505 49.9553 26.1473C50.8654 27.4505 51.6963 28.8192 52.4331 30.2308ZM51.1348 20.683C49.6171 18.7886 47.9757 17.0394 46.2402 15.4953C47.9757 17.0394 49.6171 18.788 51.1348 20.683Z" fill="white"/>
<path d="M60.2206 40.3662C59.7487 38.1111 59.057 35.8334 58.1733 33.5888L52.8828 31.9886C51.9595 30.01 50.8492 28.0959 49.59 26.3092L50.8575 20.9703C49.3777 19.1227 47.777 17.4207 46.0894 15.9058L46.212 15.4923C47.9474 17.0364 49.5889 18.7856 51.1066 20.68L49.8391 26.0189C49.8682 26.0607 49.8979 26.1025 49.9271 26.1443C50.8372 27.4475 51.668 28.8162 52.4049 30.2278C52.6584 30.7134 52.9009 31.2039 53.1319 31.6988V31.6982V31.6988L58.4224 33.2984C59.3391 35.6267 60.0545 37.9901 60.5263 40.3272L60.4977 40.331L60.2206 40.3662Z" fill="white"/>
<path d="M51.1348 20.6797C49.6171 18.7847 47.9757 17.0361 46.2402 15.492L46.2919 15.3188C48.0681 16.8799 49.748 18.6566 51.2993 20.5851L51.1348 20.6797Z" fill="white"/>
<path d="M49.8623 26.0215L51.1298 20.6825L51.2942 20.588C51.314 20.6122 51.3338 20.6369 51.3536 20.6617L50.1158 25.8758L49.8623 26.0215Z" fill="white"/>
<path d="M53.1551 31.7007C52.9241 31.2058 52.6816 30.7153 52.4281 30.2297C51.6912 28.8181 50.8604 27.4494 49.9503 26.1462C49.9211 26.1044 49.8914 26.0626 49.8623 26.0208L50.1158 25.8751L50.0861 25.9999C51.3278 27.7612 52.4237 29.6463 53.3393 31.5946L53.1551 31.7007Z" fill="white"/>
<path d="M58.4463 33.3003L53.1558 31.7006L53.34 31.5945C53.3532 31.6231 53.3664 31.6512 53.3796 31.6797L58.5469 33.242L58.4463 33.3003Z" fill="white"/>
<path d="M60.5331 40.3262C60.0613 37.9891 59.3459 35.6257 58.4292 33.2974L58.5298 33.2391L58.653 33.2765C59.557 35.5729 60.2653 37.9033 60.7377 40.209L60.5331 40.3262Z" fill="white"/>
<path d="M60.2442 40.3921C60.2426 40.3827 60.241 40.3739 60.2388 40.3651L60.5159 40.33C60.5159 40.3355 60.5165 40.3415 60.5165 40.347L60.2442 40.3921Z" fill="white"/>
<path d="M46.1928 49.5933C44.6426 49.5933 42.8918 49.0864 41.0375 48.0162C40.0708 47.458 39.1321 46.7789 38.2353 46.0036C39.1321 46.7789 40.0708 47.458 41.0375 48.0156C42.8841 49.0825 44.6272 49.5866 46.1708 49.5866C47.0875 49.5866 47.9338 49.4086 48.6899 49.0649C48.7223 49.0565 48.7542 49.0477 48.7861 49.0389C48.0113 49.404 47.1397 49.5933 46.1928 49.5933ZM29.5508 28.1743C29.5508 28.1699 29.5508 28.1661 29.5508 28.1622C29.5508 28.1661 29.5508 28.1705 29.5508 28.1743ZM29.5508 28.1446C29.5508 28.1402 29.5508 28.1347 29.5508 28.1303C29.5508 28.1353 29.5508 28.1397 29.5508 28.1446ZM29.5513 28.1155C29.5513 28.1105 29.5513 28.1045 29.5513 28.0995C29.5513 28.1045 29.5513 28.1105 29.5513 28.1155ZM29.5513 28.0863C29.5513 28.0808 29.5513 28.0748 29.5513 28.0687C29.5513 28.0748 29.5513 28.0808 29.5513 28.0863ZM29.5513 28.0577C29.5519 28.0511 29.5519 28.0451 29.5519 28.0385C29.5519 28.0445 29.5519 28.0517 29.5513 28.0577ZM29.5519 28.0292C29.5519 28.022 29.5519 28.0149 29.5519 28.0072C29.5519 28.0149 29.5519 28.022 29.5519 28.0292ZM29.5524 28.0011C29.5524 27.9934 29.5524 27.9852 29.5524 27.9775C29.5524 27.9852 29.5524 27.9934 29.5524 28.0011ZM29.5524 27.9731C29.553 27.9648 29.553 27.956 29.553 27.9478C29.553 27.956 29.553 27.9648 29.5524 27.9731ZM29.553 27.945C29.553 27.9357 29.5535 27.9269 29.5535 27.9175C29.5535 27.9269 29.553 27.9357 29.553 27.945ZM29.5535 27.9175C29.5893 26.0237 29.9808 24.4356 30.6555 23.195C30.5851 23.327 30.518 23.4634 30.4542 23.6031C29.9032 24.7754 29.5854 26.2227 29.5535 27.9175Z" fill="white"/>
<path d="M46.1708 49.5845C44.6272 49.5845 42.8841 49.0803 41.0375 48.0134C40.0708 47.4559 39.1321 46.7768 38.2353 46.0014C33.3324 41.7601 29.6789 34.6235 29.5541 28.5225C29.5519 28.4152 29.5508 28.308 29.5508 28.2013C29.5508 28.1914 29.5508 28.1815 29.5508 28.1722C29.5508 28.1683 29.5508 28.1639 29.5508 28.1601C29.5508 28.154 29.5508 28.1485 29.5508 28.1425C29.5508 28.1375 29.5508 28.1331 29.5508 28.1282C29.5513 28.1232 29.5513 28.1183 29.5513 28.1133C29.5513 28.1084 29.5513 28.1023 29.5513 28.0974C29.5513 28.093 29.5513 28.0891 29.5513 28.0842C29.5513 28.0787 29.5513 28.0726 29.5513 28.0666C29.5513 28.0627 29.5513 28.0594 29.5513 28.0556C29.5519 28.0495 29.5519 28.0424 29.5519 28.0363C29.5519 28.0336 29.5519 28.0297 29.5519 28.027C29.5519 28.0198 29.5519 28.0127 29.5519 28.005C29.5519 28.0028 29.5524 28.0012 29.5524 27.999C29.5524 27.9913 29.5524 27.983 29.5524 27.9753C29.5524 27.9737 29.5524 27.972 29.5524 27.9709C29.553 27.9627 29.553 27.9539 29.553 27.9456C29.553 27.9451 29.553 27.9434 29.553 27.9429C29.553 27.9335 29.5535 27.9247 29.5535 27.9154C29.5854 26.2206 29.9032 24.7733 30.4542 23.6009C29.8972 24.8233 29.5898 26.3372 29.5898 28.1133C29.5898 35.3928 34.7324 44.2632 41.076 47.926C42.9264 48.994 44.6723 49.4981 46.2192 49.4981C46.9797 49.4981 47.6924 49.3761 48.3445 49.1396C48.46 49.1143 48.5766 49.0913 48.6899 49.0627C47.9338 49.4064 47.0875 49.5845 46.1708 49.5845Z" fill="white"/>
<path d="M45.7774 49.8115C44.2289 49.8115 42.4808 49.3057 40.6293 48.2366C34.2852 44.5743 29.1426 35.704 29.1426 28.4245C29.1426 24.9376 30.3287 22.4608 32.2572 21.2197C31.6154 21.7273 31.0716 22.3883 30.6449 23.1922C29.9702 24.4328 29.5786 26.0209 29.5429 27.9147C29.5429 27.9241 29.5424 27.9328 29.5424 27.9422C29.5424 27.9427 29.5424 27.9444 29.5424 27.9449C29.5424 27.9532 29.5423 27.962 29.5418 27.9702C29.5418 27.9713 29.5418 27.973 29.5418 27.9746C29.5418 27.9823 29.5418 27.9906 29.5418 27.9983C29.5418 28.0005 29.5413 28.0021 29.5413 28.0043C29.5413 28.012 29.5413 28.0192 29.5413 28.0263C29.5413 28.0291 29.5413 28.0329 29.5413 28.0357C29.5413 28.0423 29.5412 28.0483 29.5407 28.0549C29.5407 28.0588 29.5407 28.0621 29.5407 28.0659C29.5407 28.072 29.5407 28.078 29.5407 28.0835C29.5407 28.0885 29.5407 28.0923 29.5407 28.0967C29.5407 28.1017 29.5407 28.1077 29.5407 28.1127C29.5407 28.1176 29.5407 28.1226 29.5402 28.1275C29.5402 28.1319 29.5402 28.1374 29.5402 28.1418C29.5402 28.1479 29.5402 28.1534 29.5402 28.1594C29.5402 28.1633 29.5402 28.1671 29.5402 28.1715C29.5402 28.1809 29.5402 28.1907 29.5402 28.2006C29.5402 28.3073 29.5412 28.4146 29.5434 28.5218C29.6683 34.6229 33.3218 41.7594 38.2246 46.0008C39.1215 46.7761 40.0602 47.4552 41.0269 48.0134C42.8811 49.0836 44.632 49.5905 46.1822 49.5905C47.1291 49.5905 48.0007 49.4012 48.7755 49.0361C48.787 49.0329 48.798 49.029 48.8096 49.0258C47.9303 49.5421 46.9075 49.8115 45.7774 49.8115Z" fill="white"/>
<path d="M51.1899 53.6777C51.6947 53.3813 52.1654 53.0277 52.5916 52.6058L52.6983 52.6967C52.2347 53.0876 51.731 53.4152 51.1899 53.6777Z" fill="white"/>
<path d="M50.6958 53.9429C50.8646 53.8593 51.0296 53.7701 51.1913 53.6752C51.7324 53.4127 52.2361 53.0851 52.6996 52.6942L52.7893 52.7704C52.1602 53.2776 51.4591 53.6675 50.6958 53.9429Z" fill="white"/>
<path d="M28.4371 17.6509C28.3717 17.6509 28.3595 17.6278 28.3804 17.5904L28.4508 17.6509C28.4459 17.6509 28.4415 17.6509 28.4371 17.6509ZM28.3804 17.5904L23.5166 13.4453C23.3302 13.4244 23.3676 13.2886 23.4611 13.1351L28.5201 17.4469C28.4547 17.503 28.4013 17.5535 28.3804 17.5904Z" fill="white"/>
<path d="M28.5249 17.4463L23.4658 13.1346C23.4928 13.09 23.5241 13.0444 23.5566 12.9998L28.6513 17.3424C28.6074 17.3776 28.5639 17.4127 28.5249 17.4463Z" fill="white"/>
<path d="M50.949 60.9897C50.8952 60.9869 50.9028 60.9848 50.9474 60.982L50.949 60.9897ZM50.9474 60.982L49.736 54.4795C49.6309 54.4294 49.7294 54.3688 49.8861 54.3036L51.1289 60.9711C51.0513 60.976 50.9859 60.9792 50.9474 60.982Z" fill="white"/>
<path d="M51.1079 60.9692L51.3059 60.856L51.324 60.9533C51.2498 60.96 51.1744 60.9654 51.1079 60.9692Z" fill="white"/>
<path d="M51.1163 60.9697L49.8735 54.3023C49.9379 54.2752 50.0121 54.2473 50.0858 54.2187L51.3225 60.8558L51.1245 60.9691C51.1218 60.9697 51.1191 60.9697 51.1163 60.9697Z" fill="white"/>
<path d="M58.6421 56.7876L58.6338 56.6847L58.7702 56.6061C58.7278 56.6671 58.6855 56.7277 58.6421 56.7876ZM55.8794 46.2604C55.9965 45.4553 56.0757 44.6134 56.0757 43.7033C56.0757 42.8648 56.0086 42.0075 55.9063 41.1425H55.9069C56.0086 42.0075 56.0757 42.8648 56.0757 43.7033C56.0757 44.6134 55.9965 45.4553 55.8794 46.2604L56.1202 46.1223L55.8794 46.2604Z" fill="white"/>
<path d="M58.6481 56.5156L58.6404 56.4155C59.358 55.2749 59.9376 53.9573 60.3352 52.4474L55.6924 46.4992C55.8095 45.6941 55.8887 44.8517 55.8887 43.9416C55.8887 43.031 55.8095 42.0978 55.6924 41.1569L55.9343 41.1388C56.0366 42.0038 56.1037 42.8611 56.1037 43.6997C56.1037 44.6097 56.0245 45.4516 55.9074 46.2567L60.5502 52.2054C60.1136 53.8634 59.4685 55.3035 58.6481 56.5156Z" fill="white"/>
<path d="M58.6612 56.6802L58.6475 56.5148C59.4679 55.3026 60.1129 53.8626 60.5496 52.2045L60.7156 52.1093L60.7734 52.1837C60.3235 53.8912 59.6527 55.3675 58.7976 56.6015L58.6612 56.6802Z" fill="white"/>
<path d="M55.8794 46.2603C55.9965 45.4552 56.0757 44.6133 56.0757 43.7032C56.0757 42.8647 56.0086 42.0074 55.9069 41.1424L56.1263 41.1259C56.228 41.9887 56.2995 42.8454 56.2995 43.6823C56.2995 44.5484 56.228 45.3524 56.1202 46.1222L55.8794 46.2603Z" fill="white"/>
<path d="M60.5222 52.2021L55.8794 46.2534L56.1202 46.1154C56.1147 46.1545 56.1092 46.194 56.1032 46.2331L60.6882 52.107L60.5222 52.2021Z" fill="white"/>
<path d="M40.834 17.4224C40.0603 16.9797 39.3053 16.6344 38.5624 16.3363C39.3053 16.6338 40.0603 16.9797 40.834 17.4224ZM35.682 9.35541C34.7912 9.11126 33.9245 8.94959 33.0859 8.86655C33.9245 8.94959 34.7912 9.11126 35.682 9.35541Z" fill="white"/>
<path d="M43.0207 19.208C42.2602 18.6345 41.487 18.0967 40.6935 17.6386C39.9 17.1806 39.1263 16.8253 38.3658 16.5201L35.5179 9.54801C34.2691 9.20378 32.8289 9.11469 31.6087 9.11469C31.3712 9.11469 31.1413 9.11854 30.923 9.12404L30.8691 8.83315C31.1666 8.81115 31.4691 8.80015 31.7754 8.80015C32.2032 8.80015 32.6392 8.82215 33.0835 8.86559C33.9221 8.94862 34.7888 9.11029 35.6796 9.35445C35.6906 9.35719 35.7011 9.35995 35.7121 9.36325L38.56 16.3354C39.3029 16.6334 40.0579 16.9787 40.8316 17.4214C40.8503 17.4324 40.869 17.4429 40.8877 17.4538C41.6339 17.8844 42.3619 18.3854 43.079 18.921L43.0207 19.208Z" fill="white"/>
<path d="M38.5657 16.335L35.7178 9.36285L35.814 9.30731C35.8569 9.31885 35.8992 9.3304 35.9416 9.34195L38.7537 16.2266L38.5657 16.335Z" fill="white"/>
<path d="M43.0595 18.9204C42.3425 18.3848 41.6144 17.8839 40.8682 17.4533C40.8495 17.4423 40.8308 17.4318 40.8121 17.4208C40.0384 16.9782 39.2834 16.6323 38.5405 16.3348L38.7286 16.2265L38.7643 16.3139C39.5248 16.6191 40.2985 16.9743 41.092 17.4324C41.7723 17.825 42.4354 18.2831 43.0909 18.7653L43.0595 18.9204Z" fill="white"/>
<path d="M35.7126 9.3667C35.7016 9.3634 35.6912 9.36065 35.6802 9.3579C34.7894 9.11375 33.9227 8.95208 33.0841 8.86904C32.6398 8.8256 32.2037 8.80361 31.7759 8.80361C31.4696 8.80361 31.1672 8.8146 30.8697 8.8366L30.8691 8.8344C31.2387 8.8003 31.6153 8.78271 31.9992 8.78271C33.2051 8.78271 34.4798 8.95483 35.8089 9.31116L35.7126 9.3667Z" fill="white"/>
<path d="M35.9274 54.4653C35.9194 54.4571 35.9128 54.4503 35.9048 54.444L35.9741 54.4039L35.9274 54.4653Z" fill="white"/>
<path d="M35.9265 54.459C35.9051 54.4403 35.8842 54.4216 35.8633 54.4023L36.0832 54.2769L35.9551 54.4424L35.9265 54.459Z" fill="white"/>
<path d="M35.8162 54.3604C35.7573 54.3056 35.699 54.2493 35.6396 54.196L38.0207 51.1155C38.085 51.1645 38.1504 51.2101 38.2159 51.2563L35.8162 54.3604Z" fill="white"/>
<path d="M35.8551 54.4048C35.8387 54.3893 35.8222 54.374 35.8057 54.359L38.2054 51.2549C38.2499 51.2863 38.2945 51.3183 38.339 51.3507L36.0751 54.2794L35.8551 54.4048Z" fill="white"/>
<path d="M45.5875 41.4897L40.2628 36.7783L38.854 29.8606L42.734 27.6225L48.0587 32.3335L49.4851 39.2671L45.5875 41.4897Z" fill="#71C4E2"/>
<path d="M45.6005 41.4897L40.2759 36.7783L48.0717 32.3335L49.4982 39.2671L45.6005 41.4897Z" fill="#5DB3D2"/>
<path d="M68.2493 80.3906C67.0335 81.0835 65.0627 79.9457 63.8468 77.8491C62.631 75.7524 62.631 73.4907 63.8468 72.7971C65.0627 72.1044 67.0335 73.2419 68.2493 75.3388C69.4646 77.4362 69.4646 79.6972 68.2493 80.3906ZM71.3936 73.4982L57.7205 49.9144L53.5033 33.2999C53.2086 32.1374 52.5746 31.0887 51.6821 30.2875L46.3047 25.4578C45.6767 24.8936 44.7578 24.7946 44.0242 25.2131L42.3883 26.1221L43.0526 26.6692C42.975 27.2813 43.1807 27.9274 43.696 28.3838L47.6634 31.8943L49.7354 41.9624L44.0754 45.1891L36.3433 38.3479L35.2776 33.1684C35.0082 31.8575 33.5372 31.1921 32.3747 31.8547L30.7388 32.7637L31.3882 33.4989C31.3827 33.6568 31.3904 33.8168 31.4245 33.9762L32.9197 40.9753C33.1704 42.1488 33.7643 43.2211 34.626 44.0564L46.9871 56.0337L60.6608 79.6175C63.1408 83.8951 66.9098 86.5341 69.811 86.2921L69.7577 86.7231L71.3936 85.8143C74.3575 84.1245 74.3575 78.6101 71.3936 73.4982Z" fill="#B7BAF0"/>
<path d="M66.6047 81.3015C65.3895 81.9944 63.4186 80.8566 62.2028 78.7599C60.987 76.663 60.987 74.4013 62.2028 73.708C63.4186 73.015 65.3895 74.1529 66.6047 76.2495C67.8205 78.3464 67.8205 80.6081 66.6047 81.3015ZM42.3802 26.1239C41.2133 26.7893 41.0461 28.4044 42.0519 29.2946L46.0194 32.8046L48.0914 42.8732L42.4313 46.1L34.6992 39.2587L33.6335 34.0793C33.3641 32.7683 31.8931 32.1029 30.7306 32.7656C29.9855 33.1906 29.6012 34.0485 29.7804 34.8871L31.2756 41.8861C31.5258 43.0596 32.1202 44.1319 32.9819 44.9666L45.3436 56.9443L59.0162 80.5284C61.9801 85.6403 66.7856 88.4149 69.7496 86.725C72.7129 85.0352 72.7129 79.521 69.7496 74.4091L56.0764 50.8253L51.8593 34.2107C51.5645 33.0482 50.9305 31.9996 50.038 31.1978L44.6606 26.3681C44.0326 25.8039 43.1137 25.7055 42.3802 26.1239Z" fill="#D1D3F2"/>
<path d="M62.523 73.6503L62.5499 73.6378C62.4355 73.6707 62.3244 73.7119 62.22 73.7714C61.0042 74.4648 61.0042 76.7265 62.22 78.8231C63.427 80.9052 65.3775 82.0396 66.5949 81.3769C65.3753 81.7294 63.6343 80.6191 62.523 78.7018C61.3072 76.6049 61.3072 74.3432 62.523 73.6503Z" fill="#B7BAF0"/>
<path d="M33.645 34.138L34.7107 39.3175L42.4428 46.1587L42.71 46.0064L35.0137 39.1965L33.948 34.0165C33.6868 32.7473 32.3 32.0869 31.1567 32.6483C32.2296 32.3266 33.4069 32.9794 33.645 34.138Z" fill="#B7BAF0"/>
<path d="M70.072 74.3469L56.3989 50.763L52.1818 34.1485C51.887 32.986 51.253 31.9379 50.3605 31.1361L44.9831 26.3064C44.3815 25.7664 43.5149 25.6586 42.7983 26.0172C43.4456 25.8192 44.1615 25.9616 44.6801 26.4279L50.0575 31.2577C50.95 32.0589 51.584 33.1075 51.8787 34.27L56.0959 50.8844L69.769 74.4684C72.733 79.5801 72.733 85.0945 69.769 86.7844C69.6712 86.84 69.5716 86.8898 69.4704 86.936C69.6777 86.863 69.879 86.7728 70.072 86.6628C73.0354 84.973 73.0354 79.4592 70.072 74.3469Z" fill="#B7BAF0"/>
<path d="M41.7345 43.7104L36.4098 38.9995L34.9834 32.0659L38.881 29.8432L44.2057 34.5547L45.6321 41.4883L41.7345 43.7104Z" fill="#8AD6FB"/>
</g>
<defs>
<linearGradient id="paint0_linear" x1="48" y1="14" x2="48" y2="82" gradientUnits="userSpaceOnUse">
<stop stop-color="#49509B"/>
<stop offset="1" stop-color="#48A0D8"/>
</linearGradient>
<linearGradient id="paint1_linear" x1="21.0713" y1="69.2485" x2="21.0713" y2="34.5284" gradientUnits="userSpaceOnUse">
<stop stop-color="#CBEFFD"/>
<stop offset="1" stop-color="#E6F2FE"/>
</linearGradient>
<linearGradient id="paint2_linear" x1="40.8918" y1="61.0278" x2="40.8918" y2="8.80007" gradientUnits="userSpaceOnUse">
<stop stop-color="#CBEFFD"/>
<stop offset="1" stop-color="#E6F2FE"/>
</linearGradient>
</defs>
</svg>
