<svg width="96" height="96" viewBox="0 0 96 96" fill="none" xmlns="http://www.w3.org/2000/svg">
<g style="mix-blend-mode:darken">
<rect width="96" height="96" fill="white"/>
<circle cx="22" cy="80" r="3" fill="#4896D0"/>
<circle cx="82" cy="20" r="6" fill="#495CA4"/>
<circle cx="48" cy="48" r="34" fill="url(#paint0_linear)"/>
<path d="M65.9698 39.5099C57.427 34.6761 49.0745 26.4319 42.0746 15.9269L41.9795 15.8722C34.9795 18.2936 26.6271 16.8938 18.0843 11.8629L17.7578 11.6703L18.2187 27.6329C19.8397 52.3758 28.2788 63.1451 41.8615 86.1494L42.192 86.3403C55.7748 79.0202 64.2144 77.9951 65.8353 55.1244L66.2963 39.6945L65.9698 39.5099Z" fill="url(#paint1_linear)"/>
<path d="M70.7815 35.8395C62.2382 31.0064 53.8863 22.7616 46.8858 12.2566L46.7906 12.2019C39.7907 14.6233 31.4382 13.224 22.8954 8.19257L22.569 7.99999L17.8418 11.7256L18.0771 11.864C26.6199 16.8949 34.9724 18.2948 41.9723 15.8733L42.0669 15.928C49.0673 26.433 57.4198 34.6772 65.9632 39.511L66.2896 39.6956L65.8282 55.1255C64.7701 70.0529 60.8058 75.6729 54.4047 79.812C62.4028 75.0889 69.4574 68.2326 70.6471 51.454L71.108 36.0241L70.7815 35.8395Z" fill="#E6EAFD"/>
<path d="M71.0801 36.0126L70.7536 35.828C62.2102 30.9949 53.8583 22.7501 46.8578 12.2451L46.7627 12.1904L41.9443 15.8618L42.0389 15.9165C49.0394 26.4215 57.3919 34.6658 65.9352 39.4995L66.2617 39.6841L71.0801 36.0126Z" fill="#D8EAFD"/>
<path d="M66.2814 39.6955L65.8199 55.1255C64.7619 70.0529 60.7976 75.6729 54.3965 79.812C62.3946 75.0889 69.4492 68.2326 70.6388 51.454L71.0998 36.0241L66.2814 39.6955Z" fill="#CBEBFC"/>
<path d="M40.3093 75.6686C29.7656 58.1785 24.4618 49.3799 23.1827 30.184L22.8916 20.1069C29.6613 23.1682 36.1513 24.1436 41.9986 22.9802C47.8442 30.8945 54.3342 37.413 61.1045 42.1692L60.8128 51.9097C59.5337 69.6304 54.2299 72.3053 43.6845 77.6211C43.133 77.9004 42.5718 78.1828 41.9986 78.4741C41.4243 77.5203 40.8614 76.5848 40.3093 75.6686Z" fill="url(#paint2_linear)"/>
<path d="M44.5482 76.8588C43.9967 77.1379 43.4355 77.4205 42.8624 77.7117C42.288 76.7584 41.7251 75.8223 41.1731 74.9063C30.6293 57.4169 25.3255 48.6176 24.0465 29.4217L23.7884 20.4966C23.4898 20.369 23.1913 20.2425 22.8916 20.1069L23.1827 30.184C24.4618 49.3799 29.7656 58.1785 40.3093 75.6686C40.8614 76.5848 41.4243 77.5203 41.9986 78.4741C42.5718 78.1828 43.133 77.9004 43.6845 77.6211C47.9872 75.452 51.4165 73.7223 54.0567 71.2314C51.5453 73.3282 48.3974 74.9188 44.5482 76.8588Z" fill="#17203E" fill-opacity="0.3"/>
<path d="M31.2305 41.849L39.5664 60.0034L54.2642 44.5752L47.4637 38.3832L39.5664 51.6964L35.8374 42.7469L31.2305 41.849Z" fill="#17203E" fill-opacity="0.2"/>
<path d="M18.5303 44.1564L28.7549 66.4238L46.7829 47.5002L38.4418 39.9055L28.7549 56.2349L24.181 45.2577L18.5303 44.1564Z" fill="#B7BAF0"/>
<path d="M17 45.2722L27.2247 67.5396L45.2526 48.6161L36.9115 41.0214L27.2247 57.3509L22.6507 46.3736L17 45.2722Z" fill="#D1D3FB"/>
<path d="M46.7913 47.4982L45.2672 48.6161L27.2393 67.5396L28.7633 66.4219L46.7913 47.4982Z" fill="#B7BAF0"/>
<path d="M18.5241 44.1558L17 45.2737L22.6507 46.375L24.1748 45.2572L18.5241 44.1558Z" fill="#B7BAF0"/>
<path d="M45.2356 48.6304L36.8945 41.0356L38.4186 39.9177L46.7597 47.5125L45.2356 48.6304Z" fill="#B7BAF0"/>
<path d="M22.6661 46.1283L17 45.2737L22.6507 46.375L24.1748 45.2572L22.6661 46.1283Z" fill="white"/>
<path d="M45.2356 48.6304L36.8945 41.0356L45.2573 48.3255L46.7597 47.5125L45.2356 48.6304Z" fill="#D1D3FB"/>
<path d="M66.2685 39.1923C57.7257 34.3586 49.3732 26.1144 42.3733 15.6094L42.2781 15.5547C35.2782 17.9761 26.9257 16.5762 18.3829 11.5454L18.0713 11.8753C26.5987 16.885 34.9347 18.2769 41.9226 15.8595L42.0172 15.9142C49.0177 26.4192 57.3702 34.6634 65.9129 39.4972L66.2394 39.6817L65.7785 55.1117C64.9005 67.499 62.021 73.4769 57.4089 77.5181C62.229 73.4722 65.2332 67.5099 66.134 54.8068L66.5949 39.3769L66.2685 39.1923Z" fill="white"/>
</g>
<defs>
<linearGradient id="paint0_linear" x1="48" y1="14" x2="48" y2="82" gradientUnits="userSpaceOnUse">
<stop stop-color="#49509B"/>
<stop offset="1" stop-color="#48A0D8"/>
</linearGradient>
<linearGradient id="paint1_linear" x1="42.027" y1="86.3403" x2="42.027" y2="11.6703" gradientUnits="userSpaceOnUse">
<stop stop-color="#E5F7FE"/>
<stop offset="1" stop-color="#F6FAFE"/>
</linearGradient>
<linearGradient id="paint2_linear" x1="41.9981" y1="78.4741" x2="41.9981" y2="20.1069" gradientUnits="userSpaceOnUse">
<stop stop-color="#5896D7"/>
<stop offset="1" stop-color="#424D9B"/>
</linearGradient>
</defs>
</svg>
