<svg width="43" height="43" viewBox="0 0 43 43" fill="none" xmlns="http://www.w3.org/2000/svg">
<path fill-rule="evenodd" clip-rule="evenodd" d="M18 4.5C18 2.567 19.567 1 21.5 1C23.433 1 25 2.567 25 4.5C25 6.433 23.433 8 21.5 8C19.567 8 18 6.433 18 4.5ZM2.47483 2.47483C1.108 3.84167 1.108 6.05775 2.47483 7.42458L10.9601 15.9099C12.3269 17.2767 14.543 17.2767 15.9099 15.9099C17.2767 14.543 17.2767 12.3269 15.9099 10.9601L7.42458 2.47483C6.05775 1.108 3.84167 1.108 2.47483 2.47483ZM5.49996 35C3.56696 35 1.99996 36.567 1.99996 38.5C1.99996 40.433 3.56696 42 5.49996 42C7.43296 42 8.99996 40.433 8.99996 38.5C8.99996 36.567 7.43296 35 5.49996 35ZM2.47483 19.4748C1.108 20.8417 1.108 23.0577 2.47483 24.4246L18.7383 40.688C20.1051 42.0549 22.3212 42.0549 23.688 40.688C25.0549 39.3212 25.0549 37.1051 23.688 35.7383L7.42458 19.4748C6.05775 18.108 3.84167 18.108 2.47483 19.4748Z" fill="url(#paint0_linear)"/>
<defs>
<linearGradient id="paint0_linear" x1="4.5" y1="7.5" x2="24.0571" y2="6.9422" gradientUnits="userSpaceOnUse">
<stop stop-color="#58BAD2"/>
<stop offset="1" stop-color="#2E82D6"/>
</linearGradient>
</defs>
</svg>